<svg width="103" height="58" viewBox="0 0 103 58" fill="none" xmlns="http://www.w3.org/2000/svg">
<path d="M10.5682 46.888C8.34958 46.888 6.51492 46.5787 5.06425 45.96C3.63492 45.3413 2.56825 44.5307 1.86425 43.528C1.18158 42.5253 0.84025 41.4587 0.84025 40.328C0.84025 39.048 1.17092 37.8853 1.83225 36.84C2.49358 35.7947 3.35758 34.888 4.42425 34.12C5.51225 33.352 6.70692 32.744 8.00825 32.296C9.30958 31.848 10.5896 31.592 11.8483 31.528C10.7389 31.1227 9.83225 30.568 9.12825 29.864C8.44558 29.1387 8.10425 28.3493 8.10425 27.496C8.10425 26.6213 8.37092 25.7893 8.90425 25C9.45892 24.1893 10.1949 23.4533 11.1123 22.792C12.0296 22.1093 13.0642 21.5227 14.2163 21.032C15.3896 20.5413 16.6056 20.168 17.8643 19.912C19.1229 19.6347 20.3389 19.496 21.5123 19.496C23.4109 19.496 24.9256 19.816 26.0563 20.456C27.1869 21.096 27.7523 21.9173 27.7523 22.92C27.7523 23.8373 27.2509 24.744 26.2483 25.64C25.2669 26.536 23.9016 27.176 22.1523 27.56C21.8109 27.624 21.5869 27.656 21.4803 27.656C21.2456 27.656 21.1283 27.56 21.1283 27.368C21.1283 27.304 21.1603 27.2613 21.2243 27.24C21.3096 27.1973 21.4803 27.1333 21.7362 27.048C22.9949 26.6213 23.9976 26.024 24.7443 25.256C25.4909 24.4667 25.8643 23.6347 25.8643 22.76C25.8643 22.0133 25.5016 21.416 24.7763 20.968C24.0723 20.4987 23.0056 20.264 21.5763 20.264C20.2963 20.264 19.0056 20.4453 17.7043 20.808C16.4029 21.1707 15.2083 21.6827 14.1202 22.344C13.0322 23.0053 12.1576 23.7627 11.4963 24.616C10.8349 25.4693 10.5042 26.3973 10.5042 27.4C10.5042 28.1253 10.7176 28.712 11.1442 29.16C11.5709 29.608 12.1149 29.9707 12.7762 30.248C13.4376 30.504 14.1203 30.7173 14.8243 30.888C15.5496 31.0373 16.2109 31.208 16.8083 31.4C17.0216 31.464 17.1603 31.5493 17.2243 31.656C17.2882 31.7627 17.3202 31.8693 17.3202 31.976C17.3202 32.2533 17.1602 32.488 16.8403 32.68C16.5416 32.872 16.1149 32.968 15.5603 32.968C15.2189 32.968 14.8349 32.968 14.4082 32.968C14.0029 32.9467 13.5656 32.936 13.0963 32.936C12.4349 32.936 11.7309 32.968 10.9843 33.032C10.2589 33.096 9.45892 33.2667 8.58425 33.544C7.47492 33.8853 6.50425 34.4187 5.67225 35.144C4.86158 35.8693 4.23225 36.6693 3.78425 37.544C3.33625 38.4187 3.11225 39.2827 3.11225 40.136C3.11225 41.2453 3.36825 42.248 3.88025 43.144C4.39225 44.04 5.20292 44.744 6.31225 45.256C7.42158 45.7893 8.88292 46.056 10.6962 46.056C12.3603 46.056 13.9709 45.8427 15.5283 45.416C17.0856 44.9893 18.5256 44.4453 19.8483 43.784C21.1709 43.1013 22.3016 42.3973 23.2403 41.672C24.0083 41.0533 24.6269 40.424 25.0963 39.784C25.5869 39.144 25.8323 38.5893 25.8323 38.12C25.8323 37.5227 25.4163 37.16 24.5843 37.032C24.3709 37.0107 24.2642 36.9467 24.2642 36.84C24.2642 36.6693 24.4136 36.584 24.7122 36.584C25.3309 36.584 25.8749 36.7973 26.3443 37.224C26.8349 37.6293 27.0803 38.1413 27.0803 38.76C27.0803 39.976 26.2163 41.256 24.4883 42.6C23.4429 43.432 22.1629 44.168 20.6483 44.808C19.1549 45.448 17.5336 45.9493 15.7843 46.312C14.0563 46.696 12.3176 46.888 10.5682 46.888ZM28.842 45.096C28.0527 45.096 27.466 44.8613 27.082 44.392C26.7193 43.9013 26.538 43.3253 26.538 42.664C26.538 41.9813 26.634 41.2773 26.826 40.552C27.018 39.8267 27.1887 39.2187 27.338 38.728C27.6793 37.5333 28.106 36.264 28.618 34.92C29.1513 33.5547 29.7273 32.2213 30.346 30.92C30.986 29.5973 31.6153 28.4133 32.234 27.368C32.7247 26.536 33.2473 25.9173 33.802 25.512C34.378 25.0853 34.8793 24.872 35.306 24.872C35.6473 24.872 35.914 25 36.106 25.256C36.3193 25.4907 36.426 25.8533 36.426 26.344C36.426 26.6853 36.362 27.0907 36.234 27.56C36.1273 28.0293 35.9353 28.5627 35.658 29.16C34.9113 30.824 34.0153 32.488 32.97 34.152C31.946 35.816 30.6447 37.3733 29.066 38.824C28.81 39.4213 28.5967 40.0613 28.426 40.744C28.2553 41.4267 28.17 41.9813 28.17 42.408C28.17 43.7307 28.618 44.392 29.514 44.392C30.1967 44.392 30.954 43.9013 31.786 42.92C32.618 41.9173 33.4073 40.552 34.154 38.824C34.2393 38.824 34.3247 38.8453 34.41 38.888C34.4953 38.9093 34.538 38.984 34.538 39.112C34.3033 39.688 34.0047 40.328 33.642 41.032C33.3007 41.7147 32.8953 42.3653 32.426 42.984C31.978 43.6027 31.4553 44.1147 30.858 44.52C30.2607 44.904 29.5887 45.096 28.842 45.096ZM29.322 37.8C30.09 37.0107 30.8367 36.104 31.562 35.08C32.2873 34.0347 32.9593 32.9573 33.578 31.848C34.218 30.7173 34.7513 29.6507 35.178 28.648C35.3273 28.328 35.4447 27.976 35.53 27.592C35.6367 27.208 35.69 26.888 35.69 26.632C35.69 26.3333 35.6153 26.184 35.466 26.184C35.3807 26.184 35.2527 26.2693 35.082 26.44C34.9113 26.5893 34.6873 26.856 34.41 27.24C34.0047 27.7733 33.5567 28.4987 33.066 29.416C32.5967 30.3333 32.1167 31.3147 31.626 32.36C31.1353 33.4053 30.6873 34.4187 30.282 35.4C29.8767 36.36 29.5567 37.16 29.322 37.8ZM44.0352 57.224C42.0086 57.224 40.1739 56.8827 38.5312 56.2C36.9099 55.5173 35.6299 54.5253 34.6912 53.224C33.7312 51.9227 33.2512 50.3547 33.2512 48.52C33.2512 46.8133 33.5819 45.416 34.2432 44.328C34.9046 43.2187 35.6299 42.3867 36.4192 41.832C36.8672 41.512 37.2832 41.288 37.6672 41.16C38.0512 41.0107 38.3072 40.936 38.4352 40.936C38.5632 40.936 38.6272 40.9893 38.6272 41.096C38.6272 41.2027 38.5739 41.288 38.4672 41.352C37.3579 42.0133 36.5046 42.952 35.9072 44.168C35.3312 45.384 35.0432 46.7173 35.0432 48.168C35.0432 49.832 35.4272 51.272 36.1952 52.488C36.9632 53.7253 38.0299 54.6747 39.3952 55.336C40.7606 55.9973 42.3392 56.328 44.1312 56.328C47.1606 56.328 50.0512 55.1333 52.8032 52.744C55.5552 50.3547 58.2112 47.0267 60.7712 42.76C61.7313 41.1173 62.6379 39.4213 63.4913 37.672C64.3446 35.9227 65.1553 34.1947 65.9233 32.488C66.6913 30.824 67.4166 29.3307 68.0993 28.008C68.8033 26.664 69.4113 25.5333 69.9233 24.616C70.4566 23.6987 70.8406 23.0587 71.0753 22.696C65.6779 23.4213 61.4966 24.5733 58.5312 26.152C55.5872 27.7307 54.1152 29.7573 54.1152 32.232C54.1152 33.512 54.4459 34.472 55.1073 35.112C55.7686 35.7307 56.5259 36.04 57.3792 36.04C58.2113 36.04 59.0433 35.7733 59.8752 35.24C60.7286 34.7067 61.4326 33.9707 61.9873 33.032C62.5633 32.072 62.8513 30.9627 62.8513 29.704C62.8513 29.0853 62.6593 28.584 62.2753 28.2C62.2753 27.9867 62.3819 27.88 62.5953 27.88C62.8513 27.88 63.0752 28.072 63.2673 28.456C63.4806 28.84 63.5873 29.32 63.5873 29.896C63.5873 31.3253 63.2459 32.5627 62.5633 33.608C61.9019 34.632 61.0486 35.4213 60.0033 35.976C58.9793 36.5307 57.9233 36.808 56.8353 36.808C56.0033 36.808 55.2139 36.6267 54.4673 36.264C53.7206 35.9013 53.1019 35.3467 52.6112 34.6C52.1419 33.8533 51.9072 32.9253 51.9072 31.816C51.9072 30.3653 52.3872 29.1067 53.3472 28.04C54.3286 26.952 55.6939 26.024 57.4433 25.256C59.2139 24.488 61.2939 23.8267 63.6833 23.272C66.0939 22.7173 68.7393 22.2373 71.6193 21.832C72.2166 21 72.7606 20.3493 73.2513 19.88C73.7633 19.4107 74.3179 19.176 74.9153 19.176C75.2566 19.176 75.5233 19.2613 75.7153 19.432C75.9286 19.6027 76.0353 19.8587 76.0353 20.2C76.0353 20.6907 75.8326 21.096 75.4272 21.416C75.0219 21.7147 74.5099 21.96 73.8913 22.152C73.2726 22.3227 72.6539 22.4613 72.0353 22.568C71.2459 23.9333 70.5526 25.3413 69.9552 26.792C69.3793 28.2213 68.8353 29.6933 68.3232 31.208C67.8326 32.7013 67.2993 34.2373 66.7233 35.816C66.1686 37.3733 65.5073 38.9733 64.7393 40.616C63.1393 44.008 61.2939 46.9413 59.2033 49.416C57.1126 51.912 54.7979 53.832 52.2593 55.176C49.7206 56.5413 46.9792 57.224 44.0352 57.224ZM72.6113 21.768C73.4859 21.6187 74.0726 21.4373 74.3713 21.224C74.6699 20.9893 74.8193 20.776 74.8193 20.584C74.8193 20.328 74.6913 20.2 74.4353 20.2C74.2006 20.2 73.9126 20.3813 73.5713 20.744C73.2513 21.0853 72.9313 21.4267 72.6113 21.768ZM74.2545 45.096C73.7638 45.096 73.3265 44.9573 72.9425 44.68C72.5798 44.4027 72.3985 43.8373 72.3985 42.984C72.3985 42.6213 72.4198 42.28 72.4625 41.96C72.5265 41.64 72.6012 41.2987 72.6865 40.936C72.4945 41.256 72.2278 41.6507 71.8865 42.12C71.5452 42.5893 71.1612 43.048 70.7345 43.496C70.3292 43.944 69.9025 44.3173 69.4545 44.616C69.0278 44.9147 68.6225 45.064 68.2385 45.064C67.6838 45.064 67.2358 44.8187 66.8945 44.328C66.5532 43.816 66.3825 43.1547 66.3825 42.344C66.3825 41.4693 66.5852 40.5307 66.9905 39.528C67.3958 38.5253 67.9505 37.5653 68.6545 36.648C69.3585 35.7307 70.1692 34.984 71.0865 34.408C72.0038 33.832 72.9638 33.544 73.9665 33.544C74.4572 33.544 74.9265 33.6293 75.3745 33.8C75.8225 33.9493 76.2172 34.2053 76.5585 34.568C76.7078 34.7173 76.7825 34.888 76.7825 35.08C76.7825 35.208 76.7292 35.3147 76.6225 35.4C76.5158 35.4853 76.3772 35.5067 76.2065 35.464C75.9718 34.7173 75.4705 34.344 74.7025 34.344C74.3398 34.344 73.9238 34.4613 73.4545 34.696C72.8785 34.9947 72.2598 35.4747 71.5985 36.136C70.9585 36.776 70.3505 37.512 69.7745 38.344C69.2198 39.1547 68.7612 39.976 68.3985 40.808C68.0358 41.64 67.8545 42.3973 67.8545 43.08C67.8545 43.784 68.1212 44.136 68.6545 44.136C69.1238 44.136 69.6038 43.912 70.0945 43.464C70.6065 43.016 71.0865 42.4613 71.5345 41.8C72.0038 41.1173 72.4305 40.4453 72.8145 39.784C73.1985 39.1227 73.4972 38.5893 73.7105 38.184C74.0305 37.608 74.3292 37.128 74.6065 36.744C74.8838 36.36 75.2785 36.168 75.7905 36.168C76.0252 36.168 76.2598 36.2 76.4945 36.264C76.7292 36.328 76.9745 36.3387 77.2305 36.296C76.5905 36.936 76.0252 37.6933 75.5345 38.568C75.0652 39.4427 74.7025 40.3067 74.4465 41.16C74.1905 41.992 74.0625 42.696 74.0625 43.272C74.0625 43.912 74.2758 44.232 74.7025 44.232C75.0438 44.232 75.4065 44.04 75.7905 43.656C76.1958 43.272 76.5798 42.792 76.9425 42.216C77.3265 41.6187 77.6785 41.0213 77.9985 40.424C78.3185 39.8053 78.5745 39.272 78.7665 38.824C78.8732 38.824 78.9585 38.8347 79.0225 38.856C79.1078 38.8773 79.1505 38.9627 79.1505 39.112C79.1292 39.1973 79.0865 39.2933 79.0225 39.4C78.9798 39.4853 78.9052 39.6453 78.7985 39.88C78.6278 40.2213 78.3932 40.68 78.0945 41.256C77.7958 41.832 77.4438 42.4187 77.0385 43.016C76.6332 43.592 76.1958 44.0827 75.7265 44.488C75.2572 44.8933 74.7665 45.096 74.2545 45.096ZM77.5313 38.728C77.7019 38.3653 77.9259 37.7893 78.2033 37C78.4806 36.1893 78.7686 35.2933 79.0673 34.312C79.3659 33.3307 79.5899 32.4027 79.7393 31.528C79.8033 31.1867 79.9206 30.9413 80.0913 30.792C80.2619 30.6213 80.4433 30.536 80.6353 30.536C80.9126 30.536 81.1686 30.6747 81.4033 30.952C81.6379 31.208 81.7553 31.5813 81.7553 32.072C81.7553 32.6693 81.5739 33.1813 81.2113 33.608C80.8699 34.0347 80.4433 34.44 79.9313 34.824C80.1446 34.8453 80.3686 34.8667 80.6033 34.888C80.8379 34.888 81.0939 34.888 81.3713 34.888C82.3739 34.888 83.3659 34.824 84.3473 34.696C84.3899 34.824 84.4113 34.92 84.4113 34.984C84.4113 35.2613 84.3259 35.6133 84.1553 36.04C84.0059 36.4667 83.8459 36.8507 83.6753 37.192C83.5899 37.384 83.4193 37.736 83.1633 38.248C82.9073 38.7387 82.6299 39.304 82.3313 39.944C82.0326 40.5627 81.7766 41.1813 81.5633 41.8C81.3713 42.3973 81.2753 42.9093 81.2753 43.336C81.2753 43.8907 81.4886 44.168 81.9153 44.168C82.3206 44.168 82.8859 43.6987 83.6113 42.76C84.3366 41.8 85.0619 40.488 85.7873 38.824C86.0433 38.824 86.1713 38.92 86.1713 39.112C85.9366 39.688 85.6379 40.3173 85.2753 41C84.9339 41.6827 84.5499 42.3333 84.1233 42.952C83.6966 43.5493 83.2379 44.0507 82.7473 44.456C82.2566 44.84 81.7446 45.032 81.2113 45.032C80.8059 45.032 80.4006 44.872 79.9953 44.552C79.5899 44.2107 79.3873 43.6667 79.3873 42.92C79.3873 42.2587 79.5153 41.6187 79.7713 41C80.0273 40.36 80.3153 39.7627 80.6353 39.208C80.9553 38.6533 81.2433 38.1627 81.4993 37.736C81.7553 37.3093 81.8833 36.968 81.8833 36.712C81.8833 36.328 81.6379 36.0507 81.1473 35.88C80.6779 35.7093 80.0593 35.6133 79.2913 35.592C78.9073 36.5733 78.6193 37.2987 78.4273 37.768C78.2353 38.2373 78.0539 38.6853 77.8833 39.112C77.5419 39.112 77.4246 38.984 77.5313 38.728ZM91.8285 45C91.1032 45 90.5698 44.7547 90.2285 44.264C89.8872 43.7733 89.7165 43.1973 89.7165 42.536C89.7165 42.344 89.7272 42.152 89.7485 41.96C89.7698 41.7467 89.8125 41.5333 89.8765 41.32C89.5778 41.7893 89.2258 42.312 88.8205 42.888C88.4365 43.4427 87.9885 43.9333 87.4765 44.36C86.9858 44.7653 86.4312 44.968 85.8125 44.968C85.5352 44.968 85.2152 44.904 84.8525 44.776C84.5112 44.648 84.2018 44.4027 83.9245 44.04C83.6685 43.6773 83.5405 43.144 83.5405 42.44C83.5405 41.5227 83.7432 40.552 84.1485 39.528C84.5538 38.504 85.1085 37.544 85.8125 36.648C86.5165 35.7307 87.3165 34.9947 88.2125 34.44C89.1085 33.864 90.0365 33.576 90.9965 33.576C91.7645 33.576 92.4898 33.7787 93.1725 34.184C93.4925 33.5867 93.8338 32.9253 94.1965 32.2C94.5592 31.4533 94.9218 30.7173 95.2845 29.992C95.6472 29.2667 95.9672 28.6053 96.2445 28.008C96.5218 27.3893 96.7352 26.92 96.8845 26.6C97.2045 25.8533 97.5032 25.384 97.7805 25.192C98.0792 24.9787 98.4312 24.872 98.8365 24.872C99.0712 24.872 99.3272 24.904 99.6045 24.968C99.9032 25.0107 100.191 25.0213 100.469 25C100.362 25.1067 100.117 25.4587 99.7325 26.056C99.3485 26.6533 98.8792 27.432 98.3245 28.392C97.7698 29.3307 97.1725 30.3653 96.5325 31.496C95.9138 32.6267 95.2952 33.7893 94.6765 34.984C94.0792 36.1573 93.5245 37.288 93.0125 38.376C92.5005 39.464 92.0952 40.424 91.7965 41.256C91.4978 42.088 91.3485 42.7173 91.3485 43.144C91.3485 43.4213 91.4125 43.6667 91.5405 43.88C91.6685 44.072 91.8818 44.168 92.1805 44.168C92.5858 44.168 93.0018 43.9653 93.4285 43.56C93.8552 43.1547 94.2605 42.6533 94.6445 42.056C95.0498 41.4373 95.4018 40.84 95.7005 40.264C96.0205 39.6667 96.2552 39.1867 96.4045 38.824C96.6605 38.824 96.7885 38.92 96.7885 39.112C96.5965 39.56 96.3405 40.1147 96.0205 40.776C95.7005 41.4373 95.3272 42.088 94.9005 42.728C94.4738 43.368 93.9938 43.912 93.4605 44.36C92.9485 44.7867 92.4045 45 91.8285 45ZM86.0365 44.04C86.3352 44.04 86.7085 43.88 87.1565 43.56C87.6045 43.2187 88.0845 42.6853 88.5965 41.96C89.1938 41.1067 89.8765 40.04 90.6445 38.76C91.4125 37.48 92.1698 36.1253 92.9165 34.696C92.7672 34.568 92.6072 34.472 92.4365 34.408C92.2658 34.344 92.0312 34.312 91.7325 34.312C91.2418 34.312 90.6978 34.5253 90.1005 34.952C89.5245 35.3573 88.9378 35.8907 88.3405 36.552C87.7645 37.2133 87.2312 37.928 86.7405 38.696C86.2712 39.464 85.8872 40.2107 85.5885 40.936C85.3112 41.64 85.1725 42.248 85.1725 42.76C85.1725 43.6133 85.4605 44.04 86.0365 44.04ZM96.0228 45C95.2334 45 94.6788 44.776 94.3588 44.328C94.0388 43.8587 93.8788 43.3253 93.8788 42.728C93.8788 42.408 93.9108 42.088 93.9748 41.768C94.0601 41.4267 94.1561 41.1173 94.2628 40.84L96.4068 35.368C96.4708 35.1973 96.5028 35.048 96.5028 34.92C96.5028 34.7067 96.4494 34.5253 96.3428 34.376C96.2361 34.2053 96.1614 34.088 96.1188 34.024L97.8788 33.96C98.1988 33.9387 98.4228 33.9813 98.5508 34.088C98.7001 34.1733 98.7748 34.28 98.7748 34.408C98.7748 34.536 98.7001 34.7707 98.5508 35.112C98.3374 35.624 98.0494 36.264 97.6868 37.032C97.3241 37.8 96.9614 38.5893 96.5988 39.4C96.2574 40.2107 95.9588 40.968 95.7028 41.672C95.4681 42.376 95.3508 42.92 95.3508 43.304C95.3508 43.5813 95.4148 43.816 95.5428 44.008C95.6921 44.2 95.9374 44.296 96.2788 44.296C96.7268 44.296 97.1641 44.1253 97.5908 43.784C98.0388 43.4213 98.4548 42.9627 98.8388 42.408C99.2228 41.8533 99.5748 41.256 99.8948 40.616C100.236 39.976 100.524 39.3787 100.759 38.824C101.015 38.824 101.143 38.92 101.143 39.112C100.929 39.6453 100.652 40.2533 100.311 40.936C99.9694 41.6187 99.5748 42.2693 99.1268 42.888C98.7001 43.4853 98.2201 43.9867 97.6868 44.392C97.1748 44.7973 96.6201 45 96.0228 45ZM98.0388 32.296C97.8894 32.296 97.7614 32.2747 97.6548 32.232C97.5481 32.1893 97.4948 32.1147 97.4948 32.008C98.1561 31.3893 98.8068 30.76 99.4468 30.12C100.087 29.4587 100.716 28.7973 101.335 28.136C101.505 28.136 101.665 28.232 101.815 28.424C101.985 28.5947 102.071 28.9467 102.071 29.48C101.879 29.6507 101.601 29.8747 101.239 30.152C100.876 30.408 100.481 30.6853 100.055 30.984C99.6494 31.2827 99.2548 31.5493 98.8708 31.784C98.5081 32.0187 98.2308 32.1893 98.0388 32.296Z" fill="white"/>
<path d="M18.0047 12.588C17.7433 12.588 17.482 12.5273 17.2207 12.406C16.9687 12.2847 16.7307 12.1073 16.5067 11.874C16.18 11.538 15.8953 11.1367 15.6527 10.67C15.4193 10.194 15.2187 9.70867 15.0507 9.214C14.8827 8.71 14.752 8.25267 14.6587 7.842C14.5653 7.422 14.5 7.1 14.4627 6.876C14.1173 7.53867 13.758 8.19667 13.3847 8.85C13.0207 9.494 12.554 10.1287 11.9847 10.754C11.4433 11.342 10.8507 11.7853 10.2067 12.084C9.56267 12.392 8.89534 12.546 8.20467 12.546C7.99001 12.546 7.77067 12.532 7.54667 12.504C6.93067 12.4293 6.47801 12.252 6.18867 11.972C5.89934 11.692 5.75467 11.3933 5.75467 11.076C5.75467 10.7307 5.90867 10.418 6.21667 10.138C6.52467 9.858 6.96334 9.718 7.53267 9.718C7.71934 9.718 7.92001 9.73667 8.13467 9.774C8.34934 9.81133 8.57334 9.872 8.80667 9.956C8.90934 9.99333 8.96067 10.0353 8.96067 10.082C8.96067 10.1193 8.92334 10.138 8.84867 10.138C8.80201 10.138 8.76467 10.1333 8.73667 10.124C8.42867 10.012 8.15334 9.956 7.91067 9.956C7.51867 9.956 7.22001 10.0727 7.01467 10.306C6.80934 10.53 6.70667 10.7773 6.70667 11.048C6.70667 11.3093 6.81867 11.552 7.04267 11.776C7.26667 12 7.61201 12.112 8.07867 12.112C8.66667 12.112 9.20801 11.9767 9.70267 11.706C10.1973 11.426 10.6593 11.048 11.0887 10.572C11.518 10.0867 11.9287 9.54067 12.3207 8.934C12.7127 8.318 13.0953 7.67867 13.4687 7.016C14.094 5.90533 14.6587 4.89733 15.1627 3.992C15.676 3.07733 16.2173 2.30267 16.7867 1.668C16.5347 1.64 16.278 1.62133 16.0167 1.612C15.7553 1.60267 15.4893 1.598 15.2187 1.598C14.6307 1.598 14.0193 1.63067 13.3847 1.696C12.7593 1.752 12.1527 1.84533 11.5647 1.976C10.7713 2.144 10.09 2.396 9.52067 2.732C8.95134 3.05867 8.49867 3.42733 8.16267 3.838C7.83601 4.23933 7.63067 4.64533 7.54667 5.056C7.51867 5.20533 7.50467 5.35 7.50467 5.49C7.50467 5.966 7.66334 6.33467 7.98067 6.596C8.29801 6.85733 8.66201 6.988 9.07267 6.988C9.33401 6.988 9.59534 6.93667 9.85667 6.834C10.1273 6.722 10.37 6.54933 10.5847 6.316C10.762 6.12933 10.8927 5.95667 10.9767 5.798C11.0607 5.63 11.1073 5.504 11.1167 5.42C11.126 5.28933 11.154 5.224 11.2007 5.224C11.2287 5.224 11.252 5.24733 11.2707 5.294C11.2987 5.34067 11.308 5.38733 11.2987 5.434C11.2613 5.64867 11.196 5.85867 11.1027 6.064C11.0093 6.26933 10.8973 6.442 10.7667 6.582C10.5053 6.85267 10.2067 7.05333 9.87067 7.184C9.53467 7.31467 9.21267 7.38 8.90467 7.38C8.54067 7.38 8.19534 7.30067 7.86867 7.142C7.55134 6.98333 7.29467 6.75467 7.09867 6.456C6.90267 6.148 6.80467 5.77 6.80467 5.322C6.80467 4.79933 6.98667 4.26733 7.35067 3.726C7.71467 3.17533 8.26067 2.69 8.98867 2.27C9.72601 1.85 10.6407 1.56067 11.7327 1.402C12.2833 1.32733 12.8153 1.27133 13.3287 1.234C13.8513 1.18733 14.3553 1.164 14.8407 1.164C15.2327 1.164 15.6153 1.178 15.9887 1.206C16.362 1.234 16.7307 1.27133 17.0947 1.318C17.3373 1.066 17.5007 0.94 17.5847 0.94C17.65 0.94 17.6827 0.991333 17.6827 1.094C17.6827 1.13133 17.678 1.178 17.6687 1.234C17.6593 1.29 17.6453 1.346 17.6267 1.402C17.8787 1.43933 18.1213 1.48133 18.3547 1.528C18.5973 1.56533 18.812 1.612 18.9987 1.668C19.736 1.87333 20.2727 2.144 20.6087 2.48C20.954 2.80667 21.1267 3.16133 21.1267 3.544C21.1267 3.95467 20.94 4.36533 20.5667 4.776C20.2027 5.18667 19.6847 5.55067 19.0127 5.868C18.35 6.18533 17.5707 6.41867 16.6747 6.568C16.3853 6.61467 16.1287 6.64733 15.9047 6.666C15.69 6.68467 15.5033 6.69867 15.3447 6.708C15.3633 6.80133 15.4053 6.99733 15.4707 7.296C15.536 7.59467 15.6293 7.94933 15.7507 8.36C15.872 8.76133 16.026 9.186 16.2127 9.634C16.4087 10.082 16.642 10.5067 16.9127 10.908C17.1273 11.2253 17.3467 11.4867 17.5707 11.692C17.7947 11.8973 18.0327 12 18.2847 12C18.4433 12 18.6067 11.958 18.7747 11.874C18.952 11.79 19.134 11.6547 19.3207 11.468C19.5447 11.244 19.75 10.992 19.9367 10.712C20.1233 10.432 20.282 10.166 20.4127 9.914C20.5433 9.65267 20.6413 9.44733 20.7067 9.298C20.7627 9.298 20.8047 9.30267 20.8327 9.312C20.8607 9.32133 20.8747 9.35867 20.8747 9.424C20.8373 9.51733 20.772 9.66667 20.6787 9.872C20.5853 10.068 20.4733 10.292 20.3427 10.544C20.2213 10.7867 20.086 11.0293 19.9367 11.272C19.7873 11.5147 19.638 11.72 19.4887 11.888C19.274 12.1213 19.0313 12.294 18.7607 12.406C18.4993 12.5273 18.2473 12.588 18.0047 12.588ZM14.7567 6.33C15.0273 6.28333 15.3167 6.25067 15.6247 6.232C15.9327 6.21333 16.236 6.18533 16.5347 6.148C17.02 6.08267 17.4773 5.95667 17.9067 5.77C18.336 5.574 18.714 5.34067 19.0407 5.07C19.3767 4.79933 19.638 4.51467 19.8247 4.216C20.0113 3.908 20.1047 3.614 20.1047 3.334C20.1047 2.69933 19.68 2.26067 18.8307 2.018C18.6627 1.97133 18.4433 1.92467 18.1727 1.878C17.9113 1.83133 17.6733 1.78933 17.4587 1.752C17.0107 2.51733 16.5487 3.26867 16.0727 4.006C15.606 4.74333 15.1673 5.518 14.7567 6.33ZM22.4192 12.056C22.0738 12.056 21.7612 11.944 21.4812 11.72C21.2105 11.496 21.0752 11.1553 21.0752 10.698C21.0752 10.3153 21.1592 9.90933 21.3272 9.48C21.5045 9.05067 21.7332 8.64933 22.0132 8.276C22.3025 7.89333 22.6198 7.58533 22.9652 7.352C23.3198 7.10933 23.6745 6.988 24.0292 6.988C24.2065 6.988 24.3792 7.03933 24.5472 7.142C24.7152 7.24467 24.7992 7.422 24.7992 7.674C24.7992 7.90733 24.7105 8.164 24.5332 8.444C24.3558 8.724 24.1038 8.98533 23.7772 9.228C23.6372 9.33067 23.4598 9.42867 23.2452 9.522C23.0305 9.61533 22.8158 9.69467 22.6012 9.76C22.3865 9.816 22.2092 9.844 22.0692 9.844C22.0225 9.956 21.9758 10.1053 21.9292 10.292C21.8918 10.4787 21.8732 10.67 21.8732 10.866C21.8732 11.0993 21.9198 11.3093 22.0132 11.496C22.1065 11.6827 22.2792 11.776 22.5312 11.776C22.8392 11.776 23.1238 11.6873 23.3852 11.51C23.6558 11.3327 23.8938 11.1087 24.0992 10.838C24.3138 10.5673 24.4958 10.292 24.6452 10.012C24.7945 9.732 24.9112 9.494 24.9952 9.298C25.1072 9.298 25.1632 9.34 25.1632 9.424C25.0418 9.68533 24.9018 9.97 24.7432 10.278C24.5938 10.586 24.4118 10.8753 24.1972 11.146C23.9918 11.4073 23.7398 11.6267 23.4412 11.804C23.1518 11.972 22.8112 12.056 22.4192 12.056ZM22.1672 9.592C22.2978 9.592 22.5172 9.54533 22.8252 9.452C23.1332 9.34933 23.4132 9.19067 23.6652 8.976C23.9078 8.76133 24.0945 8.528 24.2252 8.276C24.3558 8.01467 24.4212 7.79533 24.4212 7.618C24.4212 7.41267 24.3465 7.31 24.1972 7.31C24.0852 7.31 23.9312 7.38467 23.7352 7.534C23.5392 7.68333 23.2965 7.93533 23.0072 8.29C22.8298 8.514 22.6618 8.75667 22.5032 9.018C22.3445 9.27933 22.2325 9.47067 22.1672 9.592ZM25.9872 12.056C25.6045 12.056 25.2919 11.9393 25.0492 11.706C24.8159 11.4633 24.6992 11.2113 24.6992 10.95C24.6992 10.7353 24.7552 10.5393 24.8672 10.362C24.9699 10.1753 25.1099 10.082 25.2872 10.082L25.3012 10.054C25.5065 9.68067 25.7025 9.30267 25.8892 8.92C26.0852 8.528 26.2999 8.11267 26.5332 7.674C26.7292 7.31 26.9392 7.01133 27.1632 6.778C27.3965 6.54467 27.6672 6.428 27.9752 6.428C28.0499 6.428 28.1525 6.44667 28.2832 6.484C28.4139 6.512 28.4792 6.57733 28.4792 6.68C28.4792 6.75467 28.4372 6.792 28.3532 6.792C28.2879 6.792 28.2132 6.77333 28.1292 6.736C28.0545 6.69867 27.9939 6.68 27.9472 6.68C27.7699 6.68 27.6205 6.78267 27.4992 6.988C27.3779 7.19333 27.3172 7.41267 27.3172 7.646C27.3172 7.898 27.3592 8.12667 27.4432 8.332C27.5272 8.528 27.6252 8.71933 27.7372 8.906C27.8492 9.09267 27.9472 9.284 28.0312 9.48C28.1152 9.66667 28.1572 9.872 28.1572 10.096C28.1572 10.544 28.0685 10.908 27.8912 11.188C27.7232 11.4587 27.4992 11.664 27.2192 11.804H27.2332C27.7279 11.804 28.1339 11.5753 28.4512 11.118C28.7779 10.6513 29.0999 10.0447 29.4172 9.298C29.5292 9.298 29.5852 9.34 29.5852 9.424C29.4079 9.844 29.2119 10.2547 28.9972 10.656C28.7825 11.0573 28.5305 11.3887 28.2412 11.65C27.9519 11.9113 27.5972 12.042 27.1772 12.042C26.9999 12.042 26.8365 12.0233 26.6872 11.986C26.4725 12.0327 26.2392 12.056 25.9872 12.056ZM25.7772 10.572C25.7772 10.796 25.8285 11.0107 25.9312 11.216C26.0339 11.4213 26.2205 11.5753 26.4912 11.678C26.7339 11.538 26.9205 11.3233 27.0512 11.034C27.1912 10.7353 27.2612 10.4273 27.2612 10.11C27.2612 9.84867 27.2332 9.58267 27.1772 9.312C27.1212 9.04133 27.0605 8.77533 26.9952 8.514C26.9392 8.25267 26.9112 8.01933 26.9112 7.814C26.9112 7.74867 26.9112 7.69267 26.9112 7.646C26.9205 7.59 26.9299 7.53867 26.9392 7.492C26.7712 7.744 26.5985 8.038 26.4212 8.374C26.2532 8.71 26.0899 9.032 25.9312 9.34C25.7725 9.648 25.6279 9.9 25.4972 10.096C25.6839 10.124 25.7772 10.2827 25.7772 10.572ZM25.3152 11.272C25.3152 11.4213 25.3665 11.552 25.4692 11.664C25.5719 11.776 25.7259 11.832 25.9312 11.832C26.0245 11.832 26.1132 11.8227 26.1972 11.804C26.0012 11.6827 25.8425 11.5287 25.7212 11.342C25.6092 11.1553 25.5532 10.9407 25.5532 10.698C25.4692 10.7913 25.4085 10.8893 25.3712 10.992C25.3339 11.0853 25.3152 11.1787 25.3152 11.272ZM33.0236 4.608C32.9023 4.78533 32.7669 5.00933 32.6176 5.28C32.4683 5.55067 32.3283 5.812 32.1976 6.064C32.0763 6.316 31.9829 6.50733 31.9176 6.638H33.2056C33.2056 6.67533 33.1869 6.736 33.1496 6.82C33.1216 6.904 33.0609 6.96467 32.9676 7.002H31.7496C31.6376 7.254 31.5069 7.55733 31.3576 7.912C31.2176 8.26667 31.0776 8.63533 30.9376 9.018C30.8069 9.40067 30.6949 9.76 30.6016 10.096C30.5176 10.4227 30.4756 10.6887 30.4756 10.894C30.4756 11.174 30.5129 11.384 30.5876 11.524C30.6623 11.6547 30.7976 11.72 30.9936 11.72C31.2456 11.72 31.4883 11.5987 31.7216 11.356C31.9549 11.104 32.1743 10.7913 32.3796 10.418C32.5943 10.0447 32.7809 9.67133 32.9396 9.298C33.0516 9.298 33.1076 9.34 33.1076 9.424C33.0049 9.676 32.8789 9.95133 32.7296 10.25C32.5803 10.5487 32.4076 10.838 32.2116 11.118C32.0249 11.3887 31.8103 11.6127 31.5676 11.79C31.3343 11.958 31.0729 12.042 30.7836 12.042C30.3916 12.042 30.1256 11.9347 29.9856 11.72C29.8456 11.496 29.7756 11.2113 29.7756 10.866C29.7756 10.614 29.8223 10.3107 29.9156 9.956C30.0089 9.592 30.1209 9.21867 30.2516 8.836C30.3916 8.45333 30.5269 8.09867 30.6576 7.772C30.7883 7.436 30.8909 7.17933 30.9656 7.002H30.0696C30.0696 6.92733 30.1023 6.848 30.1676 6.764C30.2329 6.68 30.3029 6.638 30.3776 6.638H31.1196C31.1943 6.48867 31.2783 6.302 31.3716 6.078C31.4743 5.854 31.6096 5.60667 31.7776 5.336C31.9176 5.112 32.0949 4.93467 32.3096 4.804C32.5336 4.67333 32.7716 4.608 33.0236 4.608ZM36.68 12.042C36.4653 12.042 36.274 11.9813 36.106 11.86C35.9473 11.7387 35.868 11.4913 35.868 11.118C35.868 10.9593 35.8773 10.81 35.896 10.67C35.924 10.53 35.9567 10.3807 35.994 10.222C35.91 10.362 35.7933 10.5347 35.644 10.74C35.4947 10.9453 35.3267 11.146 35.14 11.342C34.9627 11.538 34.776 11.7013 34.58 11.832C34.3933 11.9627 34.216 12.028 34.048 12.028C33.8053 12.028 33.6093 11.9207 33.46 11.706C33.3107 11.482 33.236 11.1927 33.236 10.838C33.236 10.4553 33.3247 10.0447 33.502 9.606C33.6793 9.16733 33.922 8.74733 34.23 8.346C34.538 7.94467 34.8927 7.618 35.294 7.366C35.6953 7.114 36.1153 6.988 36.554 6.988C36.7687 6.988 36.974 7.02533 37.17 7.1C37.366 7.16533 37.5387 7.27733 37.688 7.436C37.7533 7.50133 37.786 7.576 37.786 7.66C37.786 7.716 37.7627 7.76267 37.716 7.8C37.6693 7.83733 37.6087 7.84667 37.534 7.828C37.4313 7.50133 37.212 7.338 36.876 7.338C36.7173 7.338 36.5353 7.38933 36.33 7.492C36.078 7.62267 35.8073 7.83267 35.518 8.122C35.238 8.402 34.972 8.724 34.72 9.088C34.4773 9.44267 34.2767 9.802 34.118 10.166C33.9593 10.53 33.88 10.8613 33.88 11.16C33.88 11.468 33.9967 11.622 34.23 11.622C34.4353 11.622 34.6453 11.524 34.86 11.328C35.084 11.132 35.294 10.8893 35.49 10.6C35.6953 10.3013 35.882 10.0073 36.05 9.718C36.218 9.42867 36.3487 9.19533 36.442 9.018C36.582 8.766 36.7127 8.556 36.834 8.388C36.9553 8.22 37.128 8.136 37.352 8.136C37.4547 8.136 37.5573 8.15 37.66 8.178C37.7627 8.206 37.87 8.21067 37.982 8.192C37.702 8.472 37.4547 8.80333 37.24 9.186C37.0347 9.56867 36.876 9.94667 36.764 10.32C36.652 10.684 36.596 10.992 36.596 11.244C36.596 11.524 36.6893 11.664 36.876 11.664C37.0253 11.664 37.184 11.58 37.352 11.412C37.5293 11.244 37.6973 11.034 37.856 10.782C38.024 10.5207 38.178 10.2593 38.318 9.998C38.458 9.72733 38.57 9.494 38.654 9.298C38.7007 9.298 38.738 9.30267 38.766 9.312C38.8033 9.32133 38.822 9.35867 38.822 9.424C38.8127 9.46133 38.794 9.50333 38.766 9.55C38.7473 9.58733 38.7147 9.65733 38.668 9.76C38.5933 9.90933 38.4907 10.11 38.36 10.362C38.2293 10.614 38.0753 10.8707 37.898 11.132C37.7207 11.384 37.5293 11.5987 37.324 11.776C37.1187 11.9533 36.904 12.042 36.68 12.042ZM39.7656 12C39.6629 12 39.5369 11.9767 39.3876 11.93C39.2476 11.8833 39.1216 11.7993 39.0096 11.678C38.9069 11.5473 38.8556 11.356 38.8556 11.104C38.8556 10.8613 38.9349 10.5813 39.0936 10.264C39.2523 9.94667 39.3923 9.66667 39.5136 9.424C39.4109 9.424 39.3596 9.382 39.3596 9.298C39.3689 9.27 39.4109 9.18133 39.4856 9.032C39.5603 8.88267 39.6489 8.70533 39.7516 8.5C39.8543 8.29467 39.9523 8.09867 40.0456 7.912C40.1483 7.716 40.2276 7.56667 40.2836 7.464C40.3956 7.25867 40.5729 7.156 40.8156 7.156H41.6836C41.5249 7.27733 41.3803 7.41267 41.2496 7.562C41.1283 7.702 40.9743 7.96333 40.7876 8.346C40.7876 8.346 40.7549 8.41133 40.6896 8.542C40.6243 8.67267 40.5403 8.84067 40.4376 9.046C40.3443 9.242 40.2463 9.44267 40.1436 9.648C40.0503 9.85333 39.9709 10.026 39.9056 10.166C39.7843 10.4273 39.7049 10.6373 39.6676 10.796C39.6303 10.9453 39.6116 11.0853 39.6116 11.216C39.6116 11.524 39.7143 11.678 39.9196 11.678C40.1436 11.678 40.4143 11.496 40.7316 11.132C40.9929 10.824 41.2496 10.4553 41.5016 10.026C41.7536 9.59667 41.9916 9.15333 42.2156 8.696C42.4489 8.23867 42.6543 7.828 42.8316 7.464C42.9343 7.25867 43.1163 7.156 43.3776 7.156H44.1476C43.9423 7.324 43.7323 7.576 43.5176 7.912C43.3123 8.248 43.0836 8.67733 42.8316 9.2C42.7663 9.34 42.6823 9.51733 42.5796 9.732C42.4769 9.94667 42.3836 10.1753 42.2996 10.418C42.2249 10.6607 42.1876 10.9033 42.1876 11.146C42.1876 11.4727 42.3043 11.636 42.5376 11.636C42.8549 11.636 43.1629 11.4167 43.4616 10.978C43.7603 10.5393 44.0543 9.97933 44.3436 9.298C44.4183 9.298 44.4603 9.30267 44.4696 9.312C44.4883 9.32133 44.5023 9.35867 44.5116 9.424C44.4089 9.676 44.2829 9.95133 44.1336 10.25C43.9936 10.5393 43.8303 10.8193 43.6436 11.09C43.4663 11.3607 43.2656 11.58 43.0416 11.748C42.8269 11.916 42.5889 12 42.3276 12C42.0943 12 41.9029 11.916 41.7536 11.748C41.6043 11.5707 41.5296 11.3233 41.5296 11.006C41.5296 10.754 41.5763 10.4833 41.6696 10.194C41.5109 10.474 41.3289 10.754 41.1236 11.034C40.9183 11.314 40.6989 11.5473 40.4656 11.734C40.2323 11.9113 39.9989 12 39.7656 12ZM45.0638 9.256C45.1385 9.09733 45.2365 8.84533 45.3578 8.5C45.4792 8.14533 45.6052 7.75333 45.7358 7.324C45.8665 6.89467 45.9645 6.48867 46.0298 6.106C46.0578 5.95667 46.1092 5.84933 46.1838 5.784C46.2585 5.70933 46.3378 5.672 46.4218 5.672C46.5432 5.672 46.6552 5.73267 46.7578 5.854C46.8605 5.966 46.9118 6.12933 46.9118 6.344C46.9118 6.60533 46.8325 6.82933 46.6738 7.016C46.5245 7.20267 46.3378 7.38 46.1138 7.548C46.2072 7.55733 46.3052 7.56667 46.4078 7.576C46.5105 7.576 46.6225 7.576 46.7438 7.576C47.1825 7.576 47.6165 7.548 48.0458 7.492C48.0645 7.548 48.0738 7.59 48.0738 7.618C48.0738 7.73933 48.0365 7.89333 47.9618 8.08C47.8965 8.26667 47.8265 8.43467 47.7518 8.584C47.7145 8.668 47.6398 8.822 47.5278 9.046C47.4158 9.26067 47.2945 9.508 47.1638 9.788C47.0332 10.0587 46.9212 10.3293 46.8278 10.6C46.7438 10.8613 46.7018 11.0853 46.7018 11.272C46.7018 11.5147 46.7952 11.636 46.9818 11.636C47.1592 11.636 47.4065 11.4307 47.7238 11.02C48.0412 10.6 48.3585 10.026 48.6758 9.298C48.7878 9.298 48.8438 9.34 48.8438 9.424C48.7412 9.676 48.6105 9.95133 48.4518 10.25C48.3025 10.5487 48.1345 10.8333 47.9478 11.104C47.7612 11.3653 47.5605 11.5847 47.3458 11.762C47.1312 11.93 46.9072 12.014 46.6738 12.014C46.4965 12.014 46.3192 11.944 46.1418 11.804C45.9645 11.6547 45.8758 11.4167 45.8758 11.09C45.8758 10.8007 45.9318 10.5207 46.0438 10.25C46.1558 9.97 46.2818 9.70867 46.4218 9.466C46.5618 9.22333 46.6878 9.00867 46.7998 8.822C46.9118 8.63533 46.9678 8.486 46.9678 8.374C46.9678 8.206 46.8605 8.08467 46.6458 8.01C46.4405 7.93533 46.1698 7.89333 45.8338 7.884C45.6658 8.31333 45.5398 8.63067 45.4558 8.836C45.3718 9.04133 45.2925 9.23733 45.2178 9.424C45.0685 9.424 45.0172 9.368 45.0638 9.256ZM52.4109 12.042C52.1962 12.042 52.0049 11.9813 51.8369 11.86C51.6782 11.7387 51.5989 11.4913 51.5989 11.118C51.5989 10.9593 51.6082 10.81 51.6269 10.67C51.6549 10.53 51.6875 10.3807 51.7249 10.222C51.6409 10.362 51.5242 10.5347 51.3749 10.74C51.2255 10.9453 51.0575 11.146 50.8709 11.342C50.6935 11.538 50.5069 11.7013 50.3109 11.832C50.1242 11.9627 49.9469 12.028 49.7789 12.028C49.5362 12.028 49.3402 11.9207 49.1909 11.706C49.0415 11.482 48.9669 11.1927 48.9669 10.838C48.9669 10.4553 49.0555 10.0447 49.2329 9.606C49.4102 9.16733 49.6529 8.74733 49.9609 8.346C50.2689 7.94467 50.6235 7.618 51.0249 7.366C51.4262 7.114 51.8462 6.988 52.2849 6.988C52.4995 6.988 52.7049 7.02533 52.9009 7.1C53.0969 7.16533 53.2695 7.27733 53.4189 7.436C53.4842 7.50133 53.5169 7.576 53.5169 7.66C53.5169 7.716 53.4935 7.76267 53.4469 7.8C53.4002 7.83733 53.3395 7.84667 53.2649 7.828C53.1622 7.50133 52.9429 7.338 52.6069 7.338C52.4482 7.338 52.2662 7.38933 52.0609 7.492C51.8089 7.62267 51.5382 7.83267 51.2489 8.122C50.9689 8.402 50.7029 8.724 50.4509 9.088C50.2082 9.44267 50.0075 9.802 49.8489 10.166C49.6902 10.53 49.6109 10.8613 49.6109 11.16C49.6109 11.468 49.7275 11.622 49.9609 11.622C50.1662 11.622 50.3762 11.524 50.5909 11.328C50.8149 11.132 51.0249 10.8893 51.2209 10.6C51.4262 10.3013 51.6129 10.0073 51.7809 9.718C51.9489 9.42867 52.0795 9.19533 52.1729 9.018C52.3129 8.766 52.4435 8.556 52.5649 8.388C52.6862 8.22 52.8589 8.136 53.0829 8.136C53.1855 8.136 53.2882 8.15 53.3909 8.178C53.4935 8.206 53.6009 8.21067 53.7129 8.192C53.4329 8.472 53.1855 8.80333 52.9709 9.186C52.7655 9.56867 52.6069 9.94667 52.4949 10.32C52.3829 10.684 52.3269 10.992 52.3269 11.244C52.3269 11.524 52.4202 11.664 52.6069 11.664C52.7562 11.664 52.9149 11.58 53.0829 11.412C53.2602 11.244 53.4282 11.034 53.5869 10.782C53.7549 10.5207 53.9089 10.2593 54.0489 9.998C54.1889 9.72733 54.3009 9.494 54.3849 9.298C54.4315 9.298 54.4689 9.30267 54.4969 9.312C54.5342 9.32133 54.5529 9.35867 54.5529 9.424C54.5435 9.46133 54.5249 9.50333 54.4969 9.55C54.4782 9.58733 54.4455 9.65733 54.3989 9.76C54.3242 9.90933 54.2215 10.11 54.0909 10.362C53.9602 10.614 53.8062 10.8707 53.6289 11.132C53.4515 11.384 53.2602 11.5987 53.0549 11.776C52.8495 11.9533 52.6349 12.042 52.4109 12.042ZM53.7465 12.112C54.0825 11.4307 54.4045 10.7587 54.7125 10.096C55.0205 9.424 55.3378 8.78467 55.6645 8.178C55.8511 7.842 56.0098 7.60867 56.1405 7.478C56.2711 7.338 56.4438 7.268 56.6585 7.268C56.7331 7.268 56.8125 7.282 56.8965 7.31C56.9805 7.32867 57.0645 7.338 57.1485 7.338C57.2045 7.338 57.2465 7.33333 57.2745 7.324C57.1438 7.39867 56.9711 7.58533 56.7565 7.884C56.5511 8.17333 56.3411 8.50933 56.1265 8.892C55.9118 9.27467 55.7205 9.634 55.5525 9.97C55.7298 9.75533 55.9165 9.54067 56.1125 9.326C56.3085 9.11133 56.5231 8.906 56.7565 8.71C56.9805 8.514 57.2465 8.31333 57.5545 8.108C57.8718 7.89333 58.1798 7.716 58.4785 7.576C58.7771 7.436 59.0151 7.366 59.1925 7.366C59.2578 7.366 59.3045 7.37067 59.3325 7.38C59.3325 7.38 59.2811 7.47333 59.1785 7.66C59.0758 7.83733 58.9451 8.07533 58.7865 8.374C58.6371 8.66333 58.4831 8.976 58.3245 9.312C58.1658 9.63867 58.0211 9.956 57.8905 10.264C57.7691 10.5627 57.6898 10.8147 57.6525 11.02C57.6245 11.1413 57.6105 11.2533 57.6105 11.356C57.6105 11.5053 57.6385 11.6033 57.6945 11.65C57.7505 11.6967 57.8111 11.72 57.8765 11.72C58.0538 11.72 58.2358 11.6407 58.4225 11.482C58.6091 11.3233 58.7865 11.1227 58.9545 10.88C59.1318 10.628 59.2951 10.362 59.4445 10.082C59.5938 9.802 59.7198 9.54067 59.8225 9.298C59.9345 9.298 59.9905 9.34 59.9905 9.424C59.8878 9.676 59.7571 9.956 59.5985 10.264C59.4491 10.5627 59.2765 10.8473 59.0805 11.118C58.8938 11.3887 58.6838 11.6127 58.4505 11.79C58.2171 11.9673 57.9651 12.056 57.6945 12.056C57.5078 12.056 57.3118 11.9907 57.1065 11.86C56.9105 11.7293 56.8125 11.4867 56.8125 11.132C56.8125 11.0293 56.8218 10.922 56.8405 10.81C56.8591 10.6887 56.8918 10.558 56.9385 10.418C57.0131 10.2313 57.1018 10.0307 57.2045 9.816C57.3071 9.60133 57.4751 9.30733 57.7085 8.934C57.7738 8.83133 57.8111 8.752 57.8205 8.696C57.8391 8.64 57.8485 8.59333 57.8485 8.556C57.8485 8.444 57.7971 8.388 57.6945 8.388C57.6105 8.388 57.4845 8.43467 57.3165 8.528C57.1578 8.62133 56.9571 8.78467 56.7145 9.018C56.4811 9.242 56.2011 9.55933 55.8745 9.97C55.5571 10.3807 55.1885 10.9873 54.7685 11.79C54.7031 11.9113 54.6285 11.9767 54.5445 11.986C54.4698 11.9953 54.3625 12.0047 54.2225 12.014C54.1291 12.0233 54.0405 12.028 53.9565 12.028C53.8725 12.0373 53.8025 12.0653 53.7465 12.112ZM63.4189 4.608C63.2976 4.78533 63.1623 5.00933 63.0129 5.28C62.8636 5.55067 62.7236 5.812 62.5929 6.064C62.4716 6.316 62.3783 6.50733 62.3129 6.638H63.6009C63.6009 6.67533 63.5823 6.736 63.5449 6.82C63.5169 6.904 63.4563 6.96467 63.3629 7.002H62.1449C62.0329 7.254 61.9023 7.55733 61.7529 7.912C61.6129 8.26667 61.4729 8.63533 61.3329 9.018C61.2023 9.40067 61.0903 9.76 60.9969 10.096C60.9129 10.4227 60.8709 10.6887 60.8709 10.894C60.8709 11.174 60.9083 11.384 60.9829 11.524C61.0576 11.6547 61.1929 11.72 61.3889 11.72C61.6409 11.72 61.8836 11.5987 62.1169 11.356C62.3503 11.104 62.5696 10.7913 62.7749 10.418C62.9896 10.0447 63.1763 9.67133 63.3349 9.298C63.4469 9.298 63.5029 9.34 63.5029 9.424C63.4003 9.676 63.2743 9.95133 63.1249 10.25C62.9756 10.5487 62.8029 10.838 62.6069 11.118C62.4203 11.3887 62.2056 11.6127 61.9629 11.79C61.7296 11.958 61.4683 12.042 61.1789 12.042C60.7869 12.042 60.5209 11.9347 60.3809 11.72C60.2409 11.496 60.1709 11.2113 60.1709 10.866C60.1709 10.614 60.2176 10.3107 60.3109 9.956C60.4043 9.592 60.5163 9.21867 60.6469 8.836C60.7869 8.45333 60.9223 8.09867 61.0529 7.772C61.1836 7.436 61.2863 7.17933 61.3609 7.002H60.4649C60.4649 6.92733 60.4976 6.848 60.5629 6.764C60.6283 6.68 60.6983 6.638 60.7729 6.638H61.5149C61.5896 6.48867 61.6736 6.302 61.7669 6.078C61.8696 5.854 62.0049 5.60667 62.1729 5.336C62.3129 5.112 62.4903 4.93467 62.7049 4.804C62.9289 4.67333 63.1669 4.608 63.4189 4.608Z" fill="white"/>
</svg>
